{"accessors":[{"bufferView":0,"byteOffset":0,"componentType":5126,"count":36,"max":[4,2,4],"min":[-4,-2,-4],"normalized":false,"type":"VEC3"},{"bufferView":1,"byteOffset":0,"componentType":5126,"count":36,"max":[0,0,0.000015,1],"min":[-1,-1,-1,1],"normalized":false,"type":"VEC4"},{"bufferView":2,"byteOffset":0,"componentType":5126,"count":36,"max":[1,1,1],"min":[-1,-1,-1],"normalized":false,"type":"VEC3"},{"bufferView":3,"byteOffset":0,"componentType":5126,"count":36,"max":[1,1],"min":[0,0],"normalized":false,"type":"VEC2"},{"bufferView":4,"byteOffset":0,"componentType":5125,"count":36,"max":[35],"min":[0],"normalized":false,"type":"SCALAR"},{"bufferView":5,"byteOffset":0,"componentType":5126,"count":36,"max":[1.5,0.25,11],"min":[-1.5,-0.25,-11],"normalized":false,"type":"VEC3"},{"bufferView":6,"byteOffset":0,"componentType":5126,"count":36,"max":[0,0,0.000076,-1],"min":[-1,-1,-1,-1],"normalized":false,"type":"VEC4"},{"bufferView":7,"byteOffset":0,"componentType":5126,"count":36,"max":[1,1,1],"min":[-1,-1,-1],"normalized":false,"type":"VEC3"},{"bufferView":8,"byteOffset":0,"componentType":5126,"count":36,"max":[1,1],"min":[0,0],"normalized":false,"type":"VEC2"},{"bufferView":9,"byteOffset":0,"componentType":5125,"count":36,"max":[35],"min":[0],"normalized":false,"type":"SCALAR"},{"bufferView":10,"byteOffset":0,"componentType":5126,"count":36,"max":[5.5,0.25,1.5],"min":[-5.5,-0.25,-1.5],"normalized":false,"type":"VEC3"},{"bufferView":11,"byteOffset":0,"componentType":5126,"count":36,"max":[0,0,0.000076,-1],"min":[-1,-1,-1,-1],"normalized":false,"type":"VEC4"},{"bufferView":12,"byteOffset":0,"componentType":5126,"count":36,"max":[1,1,1],"min":[-1,-1,-1],"normalized":false,"type":"VEC3"},{"bufferView":13,"byteOffset":0,"componentType":5126,"count":36,"max":[1,1],"min":[0,0],"normalized":false,"type":"VEC2"},{"bufferView":14,"byteOffset":0,"componentType":5125,"count":36,"max":[35],"min":[0],"normalized":false,"type":"SCALAR"},{"bufferView":15,"byteOffset":0,"componentType":5126,"count":36,"max":[5,5,0],"min":[-4,0,-1],"normalized":false,"type":"VEC3"},{"bufferView":16,"byteOffset":0,"componentType":5126,"count":36,"max":[1,0,-0.000015,1],"min":[-1,0,-1,1],"normalized":false,"type":"VEC4"},{"bufferView":17,"byteOffset":0,"componentType":5126,"count":36,"max":[1,1,1],"min":[-0.581266,-1,-1],"normalized":false,"type":"VEC3"},{"bufferView":18,"byteOffset":0,"componentType":5126,"count":36,"max":[1,1],"min":[0,0],"normalized":false,"type":"VEC2"},{"bufferView":19,"byteOffset":0,"componentType":5125,"count":36,"max":[35],"min":[0],"normalized":false,"type":"SCALAR"},{"bufferView":20,"byteOffset":0,"componentType":5126,"count":36,"max":[0.5,0.25,7.5],"min":[-0.5,-0.25,-7.5],"normalized":false,"type":"VEC3"},{"bufferView":21,"byteOffset":0,"componentType":5126,"count":36,"max":[0,0,0.000076,-1],"min":[-1,-1,-1,-1],"normalized":false,"type":"VEC4"},{"bufferView":22,"byteOffset":0,"componentType":5126,"count":36,"max":[1,1,1],"min":[-1,-1,-1],"normalized":false,"type":"VEC3"},{"bufferView":23,"byteOffset":0,"componentType":5126,"count":36,"max":[1,1],"min":[0,0],"normalized":false,"type":"VEC2"},{"bufferView":24,"byteOffset":0,"componentType":5125,"count":36,"max":[35],"min":[0],"normalized":false,"type":"SCALAR"},{"bufferView":25,"byteOffset":0,"componentType":5126,"count":36,"max":[0.5,0.25,2.880859],"min":[-0.5,-0.25,-2.880859],"normalized":false,"type":"VEC3"},{"bufferView":26,"byteOffset":0,"componentType":5126,"count":36,"max":[0,0,0.000076,-1],"min":[-1,-1,-1,-1],"normalized":false,"type":"VEC4"},{"bufferView":27,"byteOffset":0,"componentType":5126,"count":36,"max":[1,1,1],"min":[-1,-1,-1],"normalized":false,"type":"VEC3"},{"bufferView":28,"byteOffset":0,"componentType":5126,"count":36,"max":[1,1],"min":[0,0],"normalized":false,"type":"VEC2"},{"bufferView":29,"byteOffset":0,"componentType":5125,"count":36,"max":[35],"min":[0],"normalized":false,"type":"SCALAR"},{"bufferView":30,"byteOffset":0,"componentType":5126,"count":36,"max":[0.5,0.25,1],"min":[-0.5,-0.25,-1],"normalized":false,"type":"VEC3"},{"bufferView":31,"byteOffset":0,"componentType":5126,"count":36,"max":[0,0,0.000076,-1],"min":[-1,-1,-1,-1],"normalized":false,"type":"VEC4"},{"bufferView":32,"byteOffset":0,"componentType":5126,"count":36,"max":[1,1,1],"min":[-1,-1,-1],"normalized":false,"type":"VEC3"},{"bufferView":33,"byteOffset":0,"componentType":5126,"count":36,"max":[1,1],"min":[0,0],"normalized":false,"type":"VEC2"},{"bufferView":34,"byteOffset":0,"componentType":5125,"count":36,"max":[35],"min":[0],"normalized":false,"type":"SCALAR"},{"bufferView":35,"byteOffset":0,"componentType":5126,"count":96,"max":[0.25,2,0.25],"min":[-0.25,-2,-0.25],"normalized":false,"type":"VEC3"},{"bufferView":36,"byteOffset":0,"componentType":5126,"count":96,"max":[1,0.000065,0.990607,1],"min":[-0.990612,-0.000022,-0.99061,-1],"normalized":false,"type":"VEC4"},{"bufferView":37,"byteOffset":0,"componentType":5126,"count":96,"max":[0.990607,1,0.990607],"min":[-0.990607,-1,-0.990599],"normalized":false,"type":"VEC3"},{"bufferView":38,"byteOffset":0,"componentType":5126,"count":96,"max":[1,1],"min":[0,0],"normalized":false,"type":"VEC2"},{"bufferView":39,"byteOffset":0,"componentType":5125,"count":96,"max":[95],"min":[0],"normalized":false,"type":"SCALAR"},{"bufferView":40,"byteOffset":0,"componentType":5126,"count":36,"max":[0.25,0.25,1],"min":[-0.25,-0.25,-1],"normalized":false,"type":"VEC3"},{"bufferView":41,"byteOffset":0,"componentType":5126,"count":36,"max":[0,0,0.000076,-1],"min":[-1,-1,-1,-1],"normalized":false,"type":"VEC4"},{"bufferView":42,"byteOffset":0,"componentType":5126,"count":36,"max":[1,1,1],"min":[-1,-1,-1],"normalized":false,"type":"VEC3"},{"bufferView":43,"byteOffset":0,"componentType":5126,"count":36,"max":[1,1],"min":[0,0],"normalized":false,"type":"VEC2"},{"bufferView":44,"byteOffset":0,"componentType":5125,"count":36,"max":[35],"min":[0],"normalized":false,"type":"SCALAR"},{"bufferView":45,"byteOffset":0,"componentType":5126,"count":36,"max":[0.25,0.25,3.25],"min":[-0.25,-0.25,-3.25],"normalized":false,"type":"VEC3"},{"bufferView":46,"byteOffset":0,"componentType":5126,"count":36,"max":[0,0,0.000076,-1],"min":[-1,-1,-1,-1],"normalized":false,"type":"VEC4"},{"bufferView":47,"byteOffset":0,"componentType":5126,"count":36,"max":[1,1,1],"min":[-1,-1,-1],"normalized":false,"type":"VEC3"},{"bufferView":48,"byteOffset":0,"componentType":5126,"count":36,"max":[1,1],"min":[0,0],"normalized":false,"type":"VEC2"},{"bufferView":49,"byteOffset":0,"componentType":5125,"count":36,"max":[35],"min":[0],"normalized":false,"type":"SCALAR"},{"bufferView":50,"byteOffset":0,"componentType":5126,"count":1653,"max":[33,6,25],"min":[-4,-2.5,-24],"normalized":false,"type":"VEC3"},{"bufferView":51,"byteOffset":0,"componentType":5126,"count":1653,"max":[1,0.990612,1,1],"min":[-1,-1,-1,-1],"normalized":false,"type":"VEC4"},{"bufferView":52,"byteOffset":0,"componentType":5126,"count":1653,"max":[1,1,1],"min":[-1,-1,-1],"normalized":false,"type":"VEC3"},{"bufferView":53,"byteOffset":0,"componentType":5126,"count":1653,"max":[1,1],"min":[0,0],"normalized":false,"type":"VEC2"},{"bufferView":54,"byteOffset":0,"componentType":5125,"count":1653,"max":[1652],"min":[0],"normalized":false,"type":"SCALAR"}],"asset":{"generator":"Godot Engine v4.2.2.stable.official@15073afe3856abd2aa1622492fe50026c7d63dc1","version":"2.0"},"bufferViews":[{"buffer":0,"byteLength":432,"byteOffset":0},{"buffer":0,"byteLength":576,"byteOffset":432},{"buffer":0,"byteLength":432,"byteOffset":1008},{"buffer":0,"byteLength":288,"byteOffset":1440},{"buffer":0,"byteLength":144,"byteOffset":1728},{"buffer":0,"byteLength":432,"byteOffset":1872},{"buffer":0,"byteLength":576,"byteOffset":2304},{"buffer":0,"byteLength":432,"byteOffset":2880},{"buffer":0,"byteLength":288,"byteOffset":3312},{"buffer":0,"byteLength":144,"byteOffset":3600},{"buffer":0,"byteLength":432,"byteOffset":3744},{"buffer":0,"byteLength":576,"byteOffset":4176},{"buffer":0,"byteLength":432,"byteOffset":4752},{"buffer":0,"byteLength":288,"byteOffset":5184},{"buffer":0,"byteLength":144,"byteOffset":5472},{"buffer":0,"byteLength":432,"byteOffset":5616},{"buffer":0,"byteLength":576,"byteOffset":6048},{"buffer":0,"byteLength":432,"byteOffset":6624},{"buffer":0,"byteLength":288,"byteOffset":7056},{"buffer":0,"byteLength":144,"byteOffset":7344},{"buffer":0,"byteLength":432,"byteOffset":7488},{"buffer":0,"byteLength":576,"byteOffset":7920},{"buffer":0,"byteLength":432,"byteOffset":8496},{"buffer":0,"byteLength":288,"byteOffset":8928},{"buffer":0,"byteLength":144,"byteOffset":9216},{"buffer":0,"byteLength":432,"byteOffset":9360},{"buffer":0,"byteLength":576,"byteOffset":9792},{"buffer":0,"byteLength":432,"byteOffset":10368},{"buffer":0,"byteLength":288,"byteOffset":10800},{"buffer":0,"byteLength":144,"byteOffset":11088},{"buffer":0,"byteLength":432,"byteOffset":11232},{"buffer":0,"byteLength":576,"byteOffset":11664},{"buffer":0,"byteLength":432,"byteOffset":12240},{"buffer":0,"byteLength":288,"byteOffset":12672},{"buffer":0,"byteLength":144,"byteOffset":12960},{"buffer":0,"byteLength":1152,"byteOffset":13104},{"buffer":0,"byteLength":1536,"byteOffset":14256},{"buffer":0,"byteLength":1152,"byteOffset":15792},{"buffer":0,"byteLength":768,"byteOffset":16944},{"buffer":0,"byteLength":384,"byteOffset":17712},{"buffer":0,"byteLength":432,"byteOffset":18096},{"buffer":0,"byteLength":576,"byteOffset":18528},{"buffer":0,"byteLength":432,"byteOffset":19104},{"buffer":0,"byteLength":288,"byteOffset":19536},{"buffer":0,"byteLength":144,"byteOffset":19824},{"buffer":0,"byteLength":432,"byteOffset":19968},{"buffer":0,"byteLength":576,"byteOffset":20400},{"buffer":0,"byteLength":432,"byteOffset":20976},{"buffer":0,"byteLength":288,"byteOffset":21408},{"buffer":0,"byteLength":144,"byteOffset":21696},{"buffer":0,"byteLength":19836,"byteOffset":21840},{"buffer":0,"byteLength":26448,"byteOffset":41676},{"buffer":0,"byteLength":19836,"byteOffset":68124},{"buffer":0,"byteLength":13224,"byteOffset":87960},{"buffer":0,"byteLength":6612,"byteOffset":101184}],"buffers":[{"byteLength":107796,"uri":"level_10.bin"}],"extensions":{"KHR_lights_punctual":{"lights":[{"color":[1,1,1],"intensity":1,"range":340282346638528860000000000000000000000,"type":"directional"}]}},"extensionsUsed":["GODOT_single_root","KHR_lights_punctual"],"images":[{"uri":"textures%2F_albedo000.png"}],"materials":[{"extensions":{},"pbrMetallicRoughness":{"baseColorFactor":[0.99999988079071,0.99999988079071,0.99999988079071,1],"baseColorTexture":{"index":0},"metallicFactor":0,"roughnessFactor":1}}],"meshes":[{"extras":{"targetNames":[]},"primitives":[{"attributes":{"NORMAL":2,"POSITION":0,"TANGENT":1,"TEXCOORD_0":3},"indices":4,"material":0,"mode":4}]},{"extras":{"targetNames":[]},"primitives":[{"attributes":{"NORMAL":7,"POSITION":5,"TANGENT":6,"TEXCOORD_0":8},"indices":9,"material":0,"mode":4}]},{"extras":{"targetNames":[]},"primitives":[{"attributes":{"NORMAL":12,"POSITION":10,"TANGENT":11,"TEXCOORD_0":13},"indices":14,"material":0,"mode":4}]},{"extras":{"targetNames":[]},"primitives":[{"attributes":{"NORMAL":17,"POSITION":15,"TANGENT":16,"TEXCOORD_0":18},"indices":19,"material":0,"mode":4}]},{"extras":{"targetNames":[]},"primitives":[{"attributes":{"NORMAL":22,"POSITION":20,"TANGENT":21,"TEXCOORD_0":23},"indices":24,"material":0,"mode":4}]},{"extras":{"targetNames":[]},"primitives":[{"attributes":{"NORMAL":27,"POSITION":25,"TANGENT":26,"TEXCOORD_0":28},"indices":29,"material":0,"mode":4}]},{"extras":{"targetNames":[]},"primitives":[{"attributes":{"NORMAL":32,"POSITION":30,"TANGENT":31,"TEXCOORD_0":33},"indices":34,"material":0,"mode":4}]},{"extras":{"targetNames":[]},"primitives":[{"attributes":{"NORMAL":37,"POSITION":35,"TANGENT":36,"TEXCOORD_0":38},"indices":39,"material":0,"mode":4}]},{"extras":{"targetNames":[]},"primitives":[{"attributes":{"NORMAL":42,"POSITION":40,"TANGENT":41,"TEXCOORD_0":43},"indices":44,"material":0,"mode":4}]},{"extras":{"targetNames":[]},"primitives":[{"attributes":{"NORMAL":47,"POSITION":45,"TANGENT":46,"TEXCOORD_0":48},"indices":49,"material":0,"mode":4}]},{"extras":{"targetNames":[]},"primitives":[{"attributes":{"NORMAL":52,"POSITION":50,"TANGENT":51,"TEXCOORD_0":53},"indices":54,"material":0,"mode":4}]}],"nodes":[{"children":[1,2,3,4,5,6,7,8,9,10,11,12,13],"extensions":{},"name":"MainLevel"},{"extensions":{"KHR_lights_punctual":{"light":0}},"name":"DirectionalLight3D","rotation":[-0.12941066920757,0.836515367031097,0.482963532209396,0.22414530813694]},{"extensions":{},"name":"WorldEnvironment"},{"extensions":{},"mesh":0,"name":"StartingRoom2","translation":[0.00146865844726563,2,0.0677413940429688]},{"extensions":{},"mesh":1,"name":"Overhang2","translation":[21.5014686584473,4.75,8.06774139404297]},{"extensions":{},"mesh":2,"name":"Overhang23","translation":[14.5014686584473,4.75,-1.43225860595703]},{"extensions":{},"mesh":3,"name":"LavaStairs2","translation":[28.0014686584473,0,-7.93225860595703]},{"extensions":{},"mesh":4,"name":"LavaBalcony2","translation":[32.5014686584473,4.75,-16.432258605957]},{"extensions":{},"mesh":5,"name":"LavaBalcony23","translation":[29.5014686584473,4.75,-20.051399230957]},{"extensions":{},"mesh":6,"name":"LavaBalcony32","rotation":[0,-0.70710676908493,0,0.70710676908493],"translation":[31.0014686584473,4.75,-22.432258605957]},{"extensions":{},"mesh":7,"name":"LavaBalcony52","rotation":[0.183012753725052,0.183012709021568,0.683012723922729,0.683012664318085],"translation":[27.5999774932861,4.75,-17.0934753417969]},{"extensions":{},"mesh":8,"name":"LavaBalcony62","rotation":[0,-0.70710676908493,0,0.70710676908493],"translation":[24.0014686584473,4.75,-20.932258605957]},{"extensions":{},"mesh":9,"name":"LavaBalcony42","rotation":[0,0.130526199936867,0,0.991444885730743],"translation":[25.5014686584473,4.75,-18.182258605957]},{"children":[14,15,16,17,18,19,20,21,22,23,24,25,26,27],"extensions":{},"mesh":10,"name":"MainRoomsAndCorridors2","translation":[0.00146865844726563,2,0.0677413940429688]},{"extensions":{},"name":"Corridor","translation":[0,-1,6]},{"extensions":{},"name":"Room2","translation":[0,0,12]},{"extensions":{},"name":"Corridor2","rotation":[0.5,-0.5,0.5,0.5],"translation":[7,-0.5,12]},{"extensions":{},"name":"Room3","translation":[16,2,8]},{"extensions":{},"name":"Corridor3","translation":[11,-1,22]},{"extensions":{},"name":"Stairs","rotation":[0.183012709021568,-0.68301272392273,0.183012694120407,0.683012664318085],"translation":[16.2509880065918,1.46071720123291,24]},{"extensions":{},"name":"Corridor4","translation":[21.4918365478516,3.93466663360596,21.9972400665283]},{"extensions":{},"name":"Room4","translation":[15,4.5,-16]},{"extensions":{},"name":"Corridor5","rotation":[0,1,0,0.0000000437113882867379],"translation":[15,4,-6]},{"extensions":{},"name":"Corridor6","rotation":[0,1,0,0.0000000437113882867379],"translation":[16,-1,-5]},{"extensions":{},"name":"Corridor7","rotation":[0,0.707106709480286,0,0.707106828689575],"translation":[21,-1,-10]},{"extensions":{},"name":"Corridor8","rotation":[0,0.707106709480286,0,0.707106828689575],"translation":[21,4,-21]},{"extensions":{},"name":"DonutRoom","translation":[16,0,-10]},{"extensions":{},"name":"LavaRoom","translation":[28,2,-16]}],"samplers":[{"magFilter":9729,"minFilter":9987,"wrapS":10497,"wrapT":10497}],"scene":0,"scenes":[{"nodes":[0]}],"textures":[{"sampler":0,"source":0}]}